{"title":"Somebody Help Me 2 (2010) DVDRip XviD-HORRORSPOKE","uid":6660329,"size":574539776,"categoryP":"video","categoryS":"movies","magnet":"?xt=urn:btih:d606071386269a2ea2820c118a581ab8ee38e724&amp;dn=Somebody+Help+Me+2+%282010%29+DVDRip+XviD-HORRORSPOKE&amp;tr=udp%3A%2F%2Ftracker.openbittorrent.com%3A80&amp;tr=udp%3A%2F%2Fopen.demonii.com%3A1337&amp;tr=udp%3A%2F%2Ftracker.coppersurfer.tk%3A6969&amp;tr=udp%3A%2F%2Fexodus.desync.com%3A6969","seeders":0,"leechers":0,"uploader":"Horrorspoke","files":-1,"time":1315489760,"description":"Plot: Brendan and Darryl have both moved on with their lives following the events at the cabin in the woods; not unscathed however. Coming up on the anniversary, Brendan is still having nightmares that he feels will come true at any moment. His worse fears come to life when his wife and niece donÃ‚Â´t return home one night.\n\nThanks to 'Debaucherous' for the files :) Recompressed from original size which was 1GB+\n\nTECH SPECS:\n\nVideo\nID                               : 0\nFormat                           : MPEG-4 Visual\nFormat profile                   : Advanced Simple@L5\nFormat settings, BVOP            : 1\nFormat settings, QPel            : No\nFormat settings, GMC             : No warppoints\nFormat settings, Matrix          : Default (H.263)\nMuxing mode                      : Packed bitstream\nCodec ID                         : XVID\nCodec ID/Hint                    : XviD\nDuration                         : 1h 25mn\nBit rate                         : 752 Kbps\nWidth                            : 720 pixels\nHeight                           : 404 pixels\nDisplay aspect ratio             : 16:9\nFrame rate                       : 29.970 fps\nColor space                      : YUV\nChroma subsampling               : 4:2:0\nBit depth                        : 8 bits\nScan type                        : Progressive\nCompression mode                 : Lossy\nBits/(Pixel*Frame)               : 0.086\nStream size                      : 462 MiB (84%)\nWriting library                  : XviD 62\n\nAudio\nID                               : 1\nFormat                           : MPEG Audio\nFormat version                   : Version 1\nFormat profile                   : Layer 3\nCodec ID                         : 55\nCodec ID/Hint                    : MP3\nDuration                         : 1h 25mn\nBit rate mode                    : Constant\nBit rate                         : 128 Kbps\nChannel(s)                       : 2 channels\nSampling rate                    : 48.0 KHz\nCompression mode                 : Lossy\nStream size                      : 78.7 MiB (14%)\nAlignment                        : Split accross interleaves\nInterleave, duration             : 33 ms (1.00 video frame)\nInterleave, preload duration     : 500 ms\nWriting library                  : LAME3.98.4\n\n\nSCREENS:\n &lt;a href=&quot;\nhttp://imghunt.org/images/62391105000602695134.png&quot; rel=&quot;nofollow&quot; target=&quot;_NEW&quot;&gt;\nhttp://imghunt.org/images/62391105000602695134.png&lt;/a&gt; &lt;a href=&quot;\nhttp://imghunt.org/images/33157137406644546159.png&quot; rel=&quot;nofollow&quot; target=&quot;_NEW&quot;&gt;\nhttp://imghunt.org/images/33157137406644546159.png&lt;/a&gt; &lt;a href=&quot;\nhttp://imghunt.org/images/74296455566167188135.png&quot; rel=&quot;nofollow&quot; target=&quot;_NEW&quot;&gt;\nhttp://imghunt.org/images/74296455566167188135.png&lt;/a&gt;\n\n\nSEED AND ENJOY!!!\n\n\n\n\n","torrent":{"xt":"urn:btih:d606071386269a2ea2820c118a581ab8ee38e724","amp;dn":"Somebody+Help+Me+2+%282010%29+DVDRip+XviD-HORRORSPOKE","amp;tr":["udp%3A%2F%2Ftracker.openbittorrent.com%3A80","udp%3A%2F%2Fopen.demonii.com%3A1337","udp%3A%2F%2Ftracker.coppersurfer.tk%3A6969","udp%3A%2F%2Fexodus.desync.com%3A6969"],"infoHash":"d606071386269a2ea2820c118a581ab8ee38e724","infoHashBuffer":{"type":"Buffer","data":[214,6,7,19,134,38,154,46,162,130,12,17,138,88,26,184,238,56,231,36]},"announce":[],"urlList":[]}}